<svg width="24" height="24" viewBox="0 0 24 24" fill="none" xmlns="http://www.w3.org/2000/svg">
<path opacity="0.01" fill-rule="evenodd" clip-rule="evenodd" d="M3.5 6.5C3.5 5.39543 4.39543 4.5 5.5 4.5H15.5C16.6046 4.5 17.5 5.39543 17.5 6.5V12.5C17.5 13.6046 16.6046 14.5 15.5 14.5H5.5C4.39543 14.5 3.5 13.6046 3.5 12.5V6.5ZM0 2C0 0.89543 0.895431 0 2 0H22C23.1046 0 24 0.895431 24 2V22C24 23.1046 23.1046 24 22 24H2C0.89543 24 0 23.1046 0 22V2Z" fill="white"/>
<mask id="mask0_2_62" style="mask-type:alpha" maskUnits="userSpaceOnUse" x="0" y="0" width="24" height="24">
<path fill-rule="evenodd" clip-rule="evenodd" d="M3.5 6.5C3.5 5.39543 4.39543 4.5 5.5 4.5H15.5C16.6046 4.5 17.5 5.39543 17.5 6.5V12.5C17.5 13.6046 16.6046 14.5 15.5 14.5H5.5C4.39543 14.5 3.5 13.6046 3.5 12.5V6.5ZM0 2C0 0.89543 0.895431 0 2 0H22C23.1046 0 24 0.895431 24 2V22C24 23.1046 23.1046 24 22 24H2C0.89543 24 0 23.1046 0 22V2Z" fill="white"/>
</mask>
<g mask="url(#mask0_2_62)">
<path d="M19.9069 18.25H19.495L19.274 18.5977L17.985 20.6255L16.624 18.584L16.4014 18.25H16H11C10.3096 18.25 9.75 17.6904 9.75 17V11C9.75 10.3096 10.3096 9.75 11 9.75H21C21.6904 9.75 22.25 10.3096 22.25 11V17C22.25 17.6904 21.6904 18.25 21 18.25H19.9069Z" stroke="#444444" stroke-width="1.5"/>
</g>
<path d="M4.09306 12.25H4.50501L4.72601 12.5977L6.01497 14.6255L7.37596 12.584L7.59861 12.25H8H14C14.6904 12.25 15.25 11.6904 15.25 11V4C15.25 3.30964 14.6904 2.75 14 2.75H3C2.30964 2.75 1.75 3.30964 1.75 4V11C1.75 11.6904 2.30964 12.25 3 12.25H4.09306Z" stroke="#444444" stroke-width="1.5"/>
</svg>
