<svg width="20" height="11" viewBox="0 0 20 11" fill="none" xmlns="http://www.w3.org/2000/svg">
<path fill-rule="evenodd" clip-rule="evenodd" d="M9.86097 5.98059C8.3745 5.98059 7.1645 4.77059 7.1645 3.28412C7.1645 1.79765 8.3745 0.588242 9.86097 0.588242C11.3474 0.588242 12.5568 1.79765 12.5568 3.28412C12.5568 4.77059 11.3474 5.98059 9.86097 5.98059ZM14.371 10.4894H5.35097C5.10744 10.4894 4.90979 10.2918 4.90979 10.0482V8.83706C4.90979 7.01354 8.18861 6.22471 9.86097 6.22471C11.5333 6.22471 14.8121 7.01354 14.8121 8.83706V10.0482C14.8121 10.2918 14.6145 10.4894 14.371 10.4894Z" fill="white"/>
<mask id="mask0_41_878" style="mask-type:alpha" maskUnits="userSpaceOnUse" x="1" y="0" width="6" height="6">
<path fill-rule="evenodd" clip-rule="evenodd" d="M1.76868 0.588242H6.18868V5.00801H1.76868L1.76868 0.588242Z" fill="white"/>
</mask>
<g mask="url(#mask0_41_878)">
<path fill-rule="evenodd" clip-rule="evenodd" d="M3.97868 5.00801C5.19691 5.00801 6.18868 4.01625 6.18868 2.79801C6.18868 1.57978 5.19691 0.588013 3.97868 0.588013C2.76044 0.588013 1.76868 1.57978 1.76868 2.79801C1.76868 4.01625 2.76044 5.00801 3.97868 5.00801Z" fill="white"/>
</g>
<path fill-rule="evenodd" clip-rule="evenodd" d="M3.97836 5.23442C2.91659 5.23442 0.00012207 5.74266 0.00012207 7.37854V8.32854C0.00012207 8.57207 0.197769 8.76972 0.441299 8.76972H4.0313C4.0713 7.31266 5.36483 6.40501 6.80777 5.89266C5.87012 5.41324 4.60424 5.23442 3.97836 5.23442Z" fill="white"/>
<mask id="mask1_41_878" style="mask-type:alpha" maskUnits="userSpaceOnUse" x="13" y="0" width="5" height="6">
<path fill-rule="evenodd" clip-rule="evenodd" d="M13.5333 0.588242H17.9533V5.00801H13.5333V0.588242H13.5333Z" fill="white"/>
</mask>
<g mask="url(#mask1_41_878)">
<path fill-rule="evenodd" clip-rule="evenodd" d="M15.7433 5.00801C16.9616 5.00801 17.9533 4.01625 17.9533 2.79801C17.9533 1.57978 16.9616 0.588013 15.7433 0.588013C14.5251 0.588013 13.5333 1.57978 13.5333 2.79801C13.5333 4.01625 14.5251 5.00801 15.7433 5.00801Z" fill="white"/>
</g>
<mask id="mask2_41_878" style="mask-type:alpha" maskUnits="userSpaceOnUse" x="12" y="5" width="8" height="4">
<path fill-rule="evenodd" clip-rule="evenodd" d="M19.7218 5.23436V8.76965H12.9139V5.23436H19.7218V5.23436Z" fill="white"/>
</mask>
<g mask="url(#mask2_41_878)">
<path fill-rule="evenodd" clip-rule="evenodd" d="M15.7434 5.23436C15.1181 5.23436 13.8516 5.41318 12.9139 5.89259C14.3581 6.40436 15.651 7.31259 15.6904 8.76965H19.281C19.5245 8.76965 19.7222 8.57201 19.7222 8.32848V7.37906C19.7222 5.74259 16.8057 5.23436 15.7434 5.23436Z" fill="white"/>
</g>
</svg>
