<svg width="20" height="11" viewBox="0 0 20 11" fill="none" xmlns="http://www.w3.org/2000/svg">
<path fill-rule="evenodd" clip-rule="evenodd" d="M9.86097 5.98059C8.3745 5.98059 7.1645 4.77059 7.1645 3.28412C7.1645 1.79765 8.3745 0.588234 9.86097 0.588234C11.3474 0.588234 12.5568 1.79765 12.5568 3.28412C12.5568 4.77059 11.3474 5.98059 9.86097 5.98059ZM14.371 10.4894H5.35097C5.10744 10.4894 4.90979 10.2918 4.90979 10.0482V8.83706C4.90979 7.01353 8.18861 6.22471 9.86097 6.22471C11.5333 6.22471 14.8121 7.01353 14.8121 8.83706V10.0482C14.8121 10.2918 14.6145 10.4894 14.371 10.4894Z" fill="#444444"/>
<mask id="mask0_42_1005" style="mask-type:alpha" maskUnits="userSpaceOnUse" x="1" y="0" width="6" height="6">
<path fill-rule="evenodd" clip-rule="evenodd" d="M1.76868 0.588234H6.18868V5.008H1.76868L1.76868 0.588234Z" fill="white"/>
</mask>
<g mask="url(#mask0_42_1005)">
<path fill-rule="evenodd" clip-rule="evenodd" d="M3.97868 5.008C5.19691 5.008 6.18868 4.01623 6.18868 2.798C6.18868 1.57976 5.19691 0.587997 3.97868 0.587997C2.76044 0.587997 1.76868 1.57976 1.76868 2.798C1.76868 4.01623 2.76044 5.008 3.97868 5.008Z" fill="#444444"/>
</g>
<path fill-rule="evenodd" clip-rule="evenodd" d="M3.97836 5.23441C2.91659 5.23441 0.00012207 5.74265 0.00012207 7.37853V8.32853C0.00012207 8.57206 0.197769 8.76971 0.441299 8.76971H4.0313C4.0713 7.31265 5.36483 6.405 6.80777 5.89265C5.87012 5.41324 4.60424 5.23441 3.97836 5.23441Z" fill="#444444"/>
<mask id="mask1_42_1005" style="mask-type:alpha" maskUnits="userSpaceOnUse" x="13" y="0" width="5" height="6">
<path fill-rule="evenodd" clip-rule="evenodd" d="M13.5333 0.588234H17.9533V5.008H13.5333V0.588234H13.5333Z" fill="white"/>
</mask>
<g mask="url(#mask1_42_1005)">
<path fill-rule="evenodd" clip-rule="evenodd" d="M15.7433 5.008C16.9616 5.008 17.9533 4.01623 17.9533 2.798C17.9533 1.57976 16.9616 0.587997 15.7433 0.587997C14.5251 0.587997 13.5333 1.57976 13.5333 2.798C13.5333 4.01623 14.5251 5.008 15.7433 5.008Z" fill="#444444"/>
</g>
<mask id="mask2_42_1005" style="mask-type:alpha" maskUnits="userSpaceOnUse" x="12" y="5" width="8" height="4">
<path fill-rule="evenodd" clip-rule="evenodd" d="M19.7218 5.23435V8.76964H12.9139V5.23435H19.7218V5.23435Z" fill="white"/>
</mask>
<g mask="url(#mask2_42_1005)">
<path fill-rule="evenodd" clip-rule="evenodd" d="M15.7434 5.23435C15.1181 5.23435 13.8516 5.41318 12.9139 5.89259C14.3581 6.40435 15.651 7.31259 15.6904 8.76964H19.281C19.5245 8.76964 19.7222 8.572 19.7222 8.32847V7.37906C19.7222 5.74259 16.8057 5.23435 15.7434 5.23435Z" fill="#444444"/>
</g>
</svg>
