<svg width="13" height="12" viewBox="0 0 13 12" fill="none" xmlns="http://www.w3.org/2000/svg">
<path fill-rule="evenodd" clip-rule="evenodd" d="M12.4001 5.15238C12.4001 4.49238 11.8601 3.95238 11.2001 3.95238H8.02905C7.69105 3.95238 7.47005 3.68138 7.53905 3.35038L7.98405 1.21038L8.00205 1.01838C8.00205 0.772377 7.90005 0.544377 7.73805 0.382377L7.52705 0.173377C7.29305 -0.0586232 6.91205 -0.0576232 6.68005 0.175377L3.15405 3.70638C2.93205 3.92238 2.80005 4.22238 2.80005 4.55238V10.5524C2.80005 11.2124 3.34005 11.7524 4.00005 11.7524H8.60005C9.09805 11.7524 9.52405 11.4524 9.70405 11.0204L12.3161 6.79038C12.3701 6.65238 12.4001 6.50838 12.4001 6.35238V5.20638L12.3941 5.20038L12.4001 5.15238ZM0.6 11.6003H1C1.33 11.6003 1.6 11.3303 1.6 11.0003V5.00026C1.6 4.67026 1.33 4.40026 1 4.40026H0.6C0.27 4.40026 0 4.67026 0 5.00026V11.0003C0 11.3303 0.27 11.6003 0.6 11.6003Z" fill="white"/>
</svg>
