<svg width="15" height="14" viewBox="0 0 15 14" fill="none" xmlns="http://www.w3.org/2000/svg">
<path fill-rule="evenodd" clip-rule="evenodd" d="M14.3142 6.03052C14.3142 5.27624 13.6971 4.65909 12.9428 4.65909L9.31877 4.65909C8.93249 4.65909 8.67992 4.34938 8.75877 3.97109L9.26735 1.52538L9.28792 1.30595C9.28792 1.02481 9.17135 0.764236 8.9862 0.579093L8.74506 0.340236C8.47763 0.0750934 8.0422 0.0762362 7.77706 0.342522L3.74734 4.37795C3.49363 4.62481 3.34277 4.96766 3.34277 5.34481L3.34277 12.2019C3.34277 12.9562 3.95991 13.5734 4.7142 13.5734L9.97134 13.5734C10.5405 13.5734 11.0273 13.2305 11.2331 12.7368L14.2182 7.90252C14.2799 7.74481 14.3142 7.58024 14.3142 7.40195L14.3142 6.09224L14.3073 6.08538L14.3142 6.03052ZM0.828534 13.3995L1.28568 13.3995C1.66282 13.3995 1.97139 13.091 1.97139 12.7138L1.97139 5.85667C1.97139 5.47953 1.66282 5.17096 1.28568 5.17096L0.828535 5.17096C0.451393 5.17096 0.142821 5.47953 0.142821 5.85667L0.14282 12.7138C0.14282 13.091 0.451391 13.3995 0.828534 13.3995Z" fill="#808080"/>
</svg>
