<svg width="13" height="12" viewBox="0 0 13 12" fill="none" xmlns="http://www.w3.org/2000/svg">
<path fill-rule="evenodd" clip-rule="evenodd" d="M12.4 5.15238C12.4 4.49238 11.86 3.95238 11.2 3.95238H8.02904C7.69104 3.95238 7.47004 3.68138 7.53904 3.35038L7.98404 1.21038L8.00204 1.01838C8.00204 0.772377 7.90004 0.544377 7.73804 0.382377L7.52704 0.173377C7.29304 -0.0586232 6.91204 -0.0576232 6.68004 0.175377L3.15404 3.70638C2.93204 3.92238 2.80004 4.22238 2.80004 4.55238V10.5524C2.80004 11.2124 3.34004 11.7524 4.00004 11.7524H8.60004C9.09804 11.7524 9.52404 11.4524 9.70404 11.0204L12.316 6.79038C12.37 6.65238 12.4 6.50838 12.4 6.35238V5.20638L12.394 5.20038L12.4 5.15238ZM0.6 11.7524H1C1.33 11.7524 1.6 11.4824 1.6 11.1524V5.15238C1.6 4.82238 1.33 4.55238 1 4.55238H0.6C0.27 4.55238 0 4.82238 0 5.15238V11.1524C0 11.4824 0.27 11.7524 0.6 11.7524Z" fill="#34B792"/>
</svg>
