<svg width="24" height="24" viewBox="0 0 24 24" fill="none" xmlns="http://www.w3.org/2000/svg">
<path d="M7.35 17.9725C7.35 17.5583 7.01421 17.2225 6.6 17.2225H4.8C4.19146 17.2225 3.75 16.7556 3.75 16.2445V6.728C3.75 6.21692 4.19146 5.75 4.8 5.75H19.2C19.8085 5.75 20.25 6.21692 20.25 6.728V16.2445C20.25 16.7556 19.8085 17.2225 19.2 17.2225H11.4C11.2175 17.2225 11.0413 17.289 10.9044 17.4096L7.35 20.5389V17.9725Z" stroke="#444444" stroke-width="1.5" stroke-linejoin="round"/>
<path d="M9.71997 9.80834C9.71997 9.48707 9.81757 9.16242 10.0128 8.83439C10.208 8.50297 10.4928 8.22905 10.8672 8.01262C11.2416 7.79618 11.6784 7.68797 12.1776 7.68797C12.6416 7.68797 13.0512 7.77927 13.4064 7.96189C13.7616 8.14112 14.0352 8.3863 14.2272 8.69742C14.4224 9.00855 14.52 9.34672 14.52 9.71196C14.52 9.99941 14.464 10.2513 14.352 10.4678C14.2432 10.6842 14.112 10.8719 13.9584 11.0308C13.808 11.1864 13.536 11.4502 13.1424 11.8222C13.0336 11.927 12.9456 12.02 12.8784 12.1012C12.8144 12.179 12.7664 12.2517 12.7344 12.3193C12.7024 12.3836 12.6768 12.4495 12.6576 12.5171C12.6416 12.5814 12.616 12.6964 12.5808 12.8621C12.52 13.2138 12.3296 13.3896 12.0096 13.3896C11.8432 13.3896 11.7024 13.3321 11.5872 13.2172C11.4752 13.1022 11.4192 12.9314 11.4192 12.7048C11.4192 12.4208 11.4608 12.1756 11.544 11.9693C11.6272 11.7596 11.7376 11.577 11.8752 11.4214C12.0128 11.2625 12.1984 11.0748 12.432 10.8584C12.6368 10.669 12.784 10.527 12.8736 10.4323C12.9664 10.3342 13.0432 10.226 13.104 10.1076C13.168 9.98926 13.2 9.86075 13.2 9.7221C13.2 9.45156 13.104 9.22329 12.912 9.03729C12.7232 8.85129 12.4784 8.7583 12.1776 8.7583C11.8256 8.7583 11.5664 8.85299 11.4 9.04236C11.2336 9.22836 11.0928 9.50398 10.9776 9.86921C10.8688 10.2513 10.6624 10.4424 10.3584 10.4424C10.1792 10.4424 10.0272 10.3765 9.90237 10.2446C9.78077 10.1093 9.71997 9.9639 9.71997 9.80834ZM12.0624 15.368C11.8672 15.368 11.696 15.302 11.5488 15.1701C11.4048 15.0349 11.3328 14.8472 11.3328 14.6071C11.3328 14.394 11.4032 14.2148 11.544 14.0694C11.6848 13.924 11.8576 13.8512 12.0624 13.8512C12.264 13.8512 12.4336 13.924 12.5712 14.0694C12.7088 14.2148 12.7776 14.394 12.7776 14.6071C12.7776 14.8438 12.7056 15.0298 12.5616 15.1651C12.4176 15.3003 12.2512 15.368 12.0624 15.368Z" fill="#444444"/>
</svg>
