<svg width="15" height="17" viewBox="0 0 15 17" fill="none" xmlns="http://www.w3.org/2000/svg">
<mask id="mask0_15_2" style="mask-type:alpha" maskUnits="userSpaceOnUse" x="0" y="0" width="13" height="13">
<path fill-rule="evenodd" clip-rule="evenodd" d="M12.6219 0.690308H0.841187L0.841187 12.6134H12.6219V0.690308V0.690308Z" fill="white"/>
</mask>
<g mask="url(#mask0_15_2)">
<path fill-rule="evenodd" clip-rule="evenodd" d="M6.71826 1.98375C4.35886 1.98375 2.34467 3.81671 2.13677 6.23978C1.91727 8.79791 3.79705 11.0595 6.3247 11.2817C7.55951 11.3864 8.74211 11.0076 9.682 10.2061C10.6238 9.40563 11.2011 8.28315 11.3065 7.04323C11.4119 5.80332 11.0358 4.59667 10.2438 3.64349C9.45283 2.69227 8.34372 2.10803 7.11955 2.00136C6.98417 1.98962 6.8517 1.98375 6.71826 1.98375ZM6.74218 12.6134C6.57036 12.6134 6.39752 12.6051 6.22366 12.5896C2.98775 12.306 0.582292 9.41111 0.863542 6.13741C0.998542 4.54972 1.73695 3.11314 2.94172 2.08849C4.14752 1.06384 5.67036 0.576352 7.24025 0.711937C8.80707 0.849592 10.2276 1.59583 11.2401 2.81506C12.2526 4.03429 12.7354 5.57954 12.5993 7.16516C12.4633 8.75078 11.7259 10.1894 10.5212 11.2141C9.45036 12.1249 8.12388 12.6134 6.74218 12.6134Z" fill="#444444"/>
</g>
<mask id="mask1_15_2" style="mask-type:alpha" maskUnits="userSpaceOnUse" x="9" y="10" width="6" height="7">
<path fill-rule="evenodd" clip-rule="evenodd" d="M12.1104 16.946H14.9393V10.5417L9.28162 10.5417V16.946H12.1104Z" fill="white"/>
</mask>
<g mask="url(#mask1_15_2)">
<path fill-rule="evenodd" clip-rule="evenodd" d="M13.918 16.946C13.6265 16.946 13.3381 16.8208 13.1345 16.5786L9.52227 12.244C9.1592 11.8073 9.21239 11.1542 9.645 10.7857C10.0776 10.4162 10.7219 10.4731 11.086 10.9099L14.6993 15.2435C15.0624 15.6802 15.0082 16.3333 14.5766 16.7028C14.3843 16.8663 14.1511 16.946 13.918 16.946Z" fill="#444444"/>
</g>
</svg>
